<?xml version="1.0" encoding="utf-8"?>
<!-- Generator: Adobe Illustrator 26.3.1, SVG Export Plug-In . SVG Version: 6.00 Build 0)  -->
<svg version="1.1" id="Layer_1" xmlns="http://www.w3.org/2000/svg" xmlns:xlink="http://www.w3.org/1999/xlink" x="0px" y="0px"
	 viewBox="0 0 80 80" style="enable-background:new 0 0 80 80;" xml:space="preserve">
<style type="text/css">
	.st0{fill:url(#SVGID_1_);}
	.st1{fill:url(#SVGID_00000062894171583278389860000014715464335638785666_);}
	.st2{fill:url(#SVGID_00000037664623898390441940000014534649138850155966_);}
	.st3{fill:url(#SVGID_00000069366926278340189650000013448585686966852542_);}
	.st4{fill:url(#SVGID_00000117660413898819088900000001786509686425884561_);}
	.st5{fill:url(#SVGID_00000014600668391463643180000002720071835387077555_);}
	.st6{fill:#001E5F;}
</style>
<g>
	<linearGradient id="SVGID_1_" gradientUnits="userSpaceOnUse" x1="27.2958" y1="18.7734" x2="52.1193" y2="61.769">
		<stop  offset="0" style="stop-color:#FFE516"/>
		<stop  offset="1" style="stop-color:#C78004"/>
	</linearGradient>
	<circle class="st0" cx="39.7" cy="40.3" r="24.8"/>
	<g>
		
			<linearGradient id="SVGID_00000080927153013787908690000005423675030770683570_" gradientUnits="userSpaceOnUse" x1="3580.3428" y1="3219.2581" x2="3580.3428" y2="3219.2581" gradientTransform="matrix(0 1 -1 0 3235.7646 -3558.1111)">
			<stop  offset="0" style="stop-color:#2EADFF"/>
			<stop  offset="0.2271" style="stop-color:#2BA8FF"/>
			<stop  offset="0.4942" style="stop-color:#219AFF"/>
			<stop  offset="0.7802" style="stop-color:#1082FF"/>
			<stop  offset="1" style="stop-color:#006BFF"/>
		</linearGradient>
		<path style="fill:url(#SVGID_00000080927153013787908690000005423675030770683570_);" d="M16.5,22.2"/>
	</g>
	<g>
		
			<linearGradient id="SVGID_00000156587700444813030370000008021839603630691757_" gradientUnits="userSpaceOnUse" x1="3571.7754" y1="3208.969" x2="3571.7754" y2="3208.969" gradientTransform="matrix(0 1 -1 0 3235.7646 -3558.1111)">
			<stop  offset="0" style="stop-color:#2EADFF"/>
			<stop  offset="0.2271" style="stop-color:#2BA8FF"/>
			<stop  offset="0.4942" style="stop-color:#219AFF"/>
			<stop  offset="0.7802" style="stop-color:#1082FF"/>
			<stop  offset="1" style="stop-color:#006BFF"/>
		</linearGradient>
		<path style="fill:url(#SVGID_00000156587700444813030370000008021839603630691757_);" d="M26.8,13.7"/>
	</g>
	<g>
		
			<linearGradient id="SVGID_00000160171523822192552730000000305335483250148272_" gradientUnits="userSpaceOnUse" x1="26.0856" y1="40.7379" x2="70.1631" y2="40.7379">
			<stop  offset="0" style="stop-color:#2EADFF"/>
			<stop  offset="0.2271" style="stop-color:#2BA8FF"/>
			<stop  offset="0.4942" style="stop-color:#219AFF"/>
			<stop  offset="0.7802" style="stop-color:#1082FF"/>
			<stop  offset="1" style="stop-color:#006BFF"/>
		</linearGradient>
		<path style="fill:url(#SVGID_00000160171523822192552730000000305335483250148272_);" d="M40,9.8c-4.8,0-9.3,1.1-13.5,3.2
			c-0.2,0.1-0.4,0.4-0.4,0.6c0,0.1,0,0.2,0.1,0.3c0.2,0.4,0.6,0.5,1,0.3c4-2,8.4-3,12.9-3c15.8,0,28.7,12.9,28.7,28.7
			c0,14.3-10.7,26.5-24.8,28.5c-0.1,0-0.2,0-0.3,0.1c-0.3-0.8-1.1-1.3-2-1.3c-1.2,0-2.2,1-2.2,2.2c0,1.2,1,2.2,2.2,2.2
			c1.1,0,2-0.8,2.1-1.8c0.1,0,0.2,0,0.3,0c14.8-2,26-14.9,26-29.9C70.2,23.4,56.6,9.8,40,9.8z M41.7,71c-0.8,0-1.5-0.7-1.5-1.5
			c0-0.8,0.7-1.5,1.5-1.5c0.8,0,1.5,0.7,1.5,1.5C43.2,70.3,42.5,71,41.7,71z"/>
	</g>
	<g>
		
			<linearGradient id="SVGID_00000029018611902395173330000006464031214078360729_" gradientUnits="userSpaceOnUse" x1="9.8358" y1="42.7918" x2="28.06" y2="42.7918">
			<stop  offset="0" style="stop-color:#2EADFF"/>
			<stop  offset="0.2271" style="stop-color:#2BA8FF"/>
			<stop  offset="0.4942" style="stop-color:#219AFF"/>
			<stop  offset="0.7802" style="stop-color:#1082FF"/>
			<stop  offset="1" style="stop-color:#006BFF"/>
		</linearGradient>
		<path style="fill:url(#SVGID_00000029018611902395173330000006464031214078360729_);" d="M27.7,66c-10-4.7-16.4-14.9-16.4-26
			c0-6.3,2-12.3,5.8-17.3c0-0.1,0.1-0.1,0.1-0.2c0.3,0.1,0.6,0.2,0.9,0.2c1.2,0,2.2-1,2.2-2.2c0-1.2-1-2.2-2.2-2.2
			c-1.2,0-2.2,1-2.2,2.2c0,0.4,0.1,0.8,0.3,1.2c-0.1,0-0.2,0.1-0.2,0.2c-4,5.3-6.1,11.6-6.1,18.2c0,11.6,6.8,22.3,17.2,27.2
			c0.4,0.2,0.8,0,0.9-0.3C28.2,66.6,28,66.1,27.7,66z M18,18.9c0.8,0,1.5,0.7,1.5,1.5c0,0.8-0.7,1.5-1.5,1.5c-0.8,0-1.5-0.7-1.5-1.5
			C16.5,19.6,17.2,18.9,18,18.9z"/>
	</g>
	<g>
		
			<linearGradient id="SVGID_00000021817647386062909090000002121239677891212460_" gradientUnits="userSpaceOnUse" x1="1.1096" y1="40" x2="78.8904" y2="40">
			<stop  offset="0" style="stop-color:#2EADFF"/>
			<stop  offset="0.2271" style="stop-color:#2BA8FF"/>
			<stop  offset="0.4942" style="stop-color:#219AFF"/>
			<stop  offset="0.7802" style="stop-color:#1082FF"/>
			<stop  offset="1" style="stop-color:#006BFF"/>
		</linearGradient>
		<path style="fill:url(#SVGID_00000021817647386062909090000002121239677891212460_);" d="M72.7,19c-0.4-0.6-1.2-0.8-1.8-0.4
			c-0.6,0.4-0.8,1.2-0.4,1.8c3.8,5.8,5.7,12.6,5.7,19.6C76.2,60,60,76.2,40,76.2C20,76.2,3.7,60,3.7,40C3.7,20,20,3.8,40,3.8
			c6,0,11.9,1.5,17.1,4.3c-0.2,0.6-0.4,1.3-0.4,2c0,2.9,2.4,5.3,5.3,5.3c2.9,0,5.3-2.4,5.3-5.3S65,4.6,62,4.6
			c-1.3,0-2.5,0.5-3.4,1.2c-0.1,0-0.1-0.1-0.2-0.1c-5.6-3-12-4.6-18.4-4.6C18.6,1.1,1.1,18.6,1.1,40S18.6,78.9,40,78.9
			c21.4,0,38.9-17.4,38.9-38.9C78.9,32.5,76.8,25.3,72.7,19z M62,7.3c1.5,0,2.7,1.2,2.7,2.7c0,1.5-1.2,2.7-2.7,2.7s-2.7-1.2-2.7-2.7
			C59.3,8.5,60.5,7.3,62,7.3z"/>
	</g>
	<path class="st6" d="M52.3,32.7c-0.2-3-2.2-5.8-4.9-7c-0.9-0.4-2-0.7-3-0.8c-1.5-0.1-3.1,0.2-4.5,0.8c-2.3,1-3.8,3.2-4.4,5.6
		c-0.5,2-0.4,4-0.3,6.1c-3,0-6,0-9.1,0v4.4h9v3h-9v4.4h9v6.1h4.6c0-2,0-4.1,0-6.1h6.4v-4.4h-6.4c0-1,0-1.9,0-2.9
		c3,0.1,6.2,0.1,8.7-1.5C51,38.8,52.5,35.7,52.3,32.7z M46.8,35.8c-1.1,1.1-1.6,1.9-7.1,1.4v-3.9c0,0,0.2-4.3,4.6-4
		C48.9,30.3,47.9,34.8,46.8,35.8z"/>
</g>
</svg>
